{
  "accessors": [
    {
      "bufferView": 0,
      "componentType": 5126,
      "count": 52818,
      "max": [
        3.366495132446289,
        0.9697788953781128,
        7.868435859680176
      ],
      "min": [
        -3.3657801151275635,
        -1.7066099643707275,
        -8.006159782409668
      ],
      "type": "VEC3"
    },
    {
      "bufferView": 1,
      "componentType": 5125,
      "count": 150298,
      "type": "SCALAR"
    },
    {
      "bufferView": 2,
      "componentType": 5126,
      "count": 52818,
      "type": "VEC3"
    },
    {
      "bufferView": 3,
      "componentType": 5126,
      "count": 52818,
      "type": "VEC4"
    },
    {
      "bufferView": 4,
      "componentType": 5126,
      "count": 52818,
      "max": [
        3.366495132446289,
        0.9697788953781128,
        7.868435859680176
      ],
      "min": [
        -3.3657801151275635,
        -1.7066099643707275,
        -8.006159782409668
      ],
      "type": "VEC3"
    },
    {
      "bufferView": 5,
      "componentType": 5125,
      "count": 9717,
      "type": "SCALAR"
    },
    {
      "bufferView": 6,
      "componentType": 5126,
      "count": 52818,
      "type": "VEC3"
    },
    {
      "bufferView": 7,
      "componentType": 5126,
      "count": 52818,
      "type": "VEC4"
    }
  ],
  "asset": {
    "version": "2.0"
  },
  "bufferViews": [
    {
      "buffer": 0,
      "byteLength": 633816,
      "target": 34962
    },
    {
      "buffer": 1,
      "byteLength": 601192,
      "target": 34963
    },
    {
      "buffer": 2,
      "byteLength": 633816,
      "target": 34962
    },
    {
      "buffer": 3,
      "byteLength": 845088,
      "target": 34962
    },
    {
      "buffer": 0,
      "byteLength": 633816,
      "target": 34962
    },
    {
      "buffer": 4,
      "byteLength": 38868,
      "target": 34963
    },
    {
      "buffer": 2,
      "byteLength": 633816,
      "target": 34962
    },
    {
      "buffer": 3,
      "byteLength": 845088,
      "target": 34962
    }
  ],
  "buffers": [
    {
      "byteLength": 633816,
      "uri": "data:application/octet-stream;base64,"
    },
    {
      "byteLength": 601192,
      "uri": "data:application/octet-stream;base64,"
    },
    {
      "byteLength": 633816,
      "uri": "data:application/octet-stream;base64,"
    },
    {
      "byteLength": 845088,
      "uri": "data:application/octet-stream;base64,"
    },
    {
      "byteLength": 38868,
      "uri": "data:application/octet-stream;base64,"
    }
  ],
  "meshes": [
    {
      "primitives": [
        {
          "attributes": {
            "COLOR_0": 3,
            "NORMAL": 2,
            "POSITION": 0
          },
          "indices": 1,
          "mode": 5
        },
        {
          "attributes": {
            "COLOR_0": 7,
            "NORMAL": 6,
            "POSITION": 4
          },
          "indices": 5,
          "mode": 4
        }
      ]
    }
  ],
  "nodes": [
    {
      "mesh": 0,
      "name": "_gltfNode_0"
    },
    {
      "children": [
        0
      ],
      "name": "GLTF Converted Scene",
      "rotation": [
        -0.7071067811865475,
        0.0,
        0.0,
        0.7071067811865476
      ],
      "scale": [
        1.0,
        1.0,
        1.0
      ],
      "translation": [
        0.0,
        0.0,
        0.0
      ]
    }
  ],
  "scene": 0,
  "scenes": [
    {
      "nodes": [
        1
      ]
    }
  ]
}
