{
  "accessors": [
    {
      "bufferView": 0,
      "componentType": 5126,
      "count": 17119,
      "max": [
        14.935552597045898,
        13.630266189575195,
        8.371918678283691
      ],
      "min": [
        -14.935500144958496,
        -13.630599975585938,
        -8.371919631958008
      ],
      "type": "VEC3"
    },
    {
      "bufferView": 1,
      "componentType": 5125,
      "count": 48632,
      "type": "SCALAR"
    },
    {
      "bufferView": 2,
      "componentType": 5126,
      "count": 17119,
      "type": "VEC3"
    },
    {
      "bufferView": 3,
      "componentType": 5126,
      "count": 17119,
      "type": "VEC4"
    },
    {
      "bufferView": 4,
      "componentType": 5126,
      "count": 17119,
      "type": "VEC2"
    },
    {
      "bufferView": 5,
      "componentType": 5126,
      "count": 7922,
      "max": [
        85.97028350830078,
        13.26595687866211,
        1.0477077960968018
      ],
      "min": [
        57.132999420166016,
        -12.753399848937988,
        -8.371919631958008
      ],
      "type": "VEC3"
    },
    {
      "bufferView": 6,
      "componentType": 5125,
      "count": 22620,
      "type": "SCALAR"
    },
    {
      "bufferView": 7,
      "componentType": 5126,
      "count": 7922,
      "type": "VEC3"
    },
    {
      "bufferView": 8,
      "componentType": 5126,
      "count": 7922,
      "type": "VEC4"
    },
    {
      "bufferView": 9,
      "componentType": 5126,
      "count": 7922,
      "type": "VEC2"
    },
    {
      "bufferView": 10,
      "componentType": 5126,
      "count": 9197,
      "max": [
        51.321651458740234,
        13.630322456359863,
        8.371928215026855
      ],
      "min": [
        21.450599670410156,
        -13.630599975585938,
        -1.4148399829864502
      ],
      "type": "VEC3"
    },
    {
      "bufferView": 11,
      "componentType": 5125,
      "count": 26009,
      "type": "SCALAR"
    },
    {
      "bufferView": 12,
      "componentType": 5126,
      "count": 9197,
      "type": "VEC3"
    },
    {
      "bufferView": 13,
      "componentType": 5126,
      "count": 9197,
      "type": "VEC4"
    },
    {
      "bufferView": 14,
      "componentType": 5126,
      "count": 9197,
      "type": "VEC2"
    }
  ],
  "asset": {
    "version": "2.0"
  },
  "bufferViews": [
    {
      "buffer": 0,
      "byteLength": 205428,
      "target": 34962
    },
    {
      "buffer": 1,
      "byteLength": 194528,
      "target": 34963
    },
    {
      "buffer": 2,
      "byteLength": 205428,
      "target": 34962
    },
    {
      "buffer": 3,
      "byteLength": 273904,
      "target": 34962
    },
    {
      "buffer": 4,
      "byteLength": 136952,
      "target": 34962
    },
    {
      "buffer": 5,
      "byteLength": 95064,
      "target": 34962
    },
    {
      "buffer": 6,
      "byteLength": 90480,
      "target": 34963
    },
    {
      "buffer": 7,
      "byteLength": 95064,
      "target": 34962
    },
    {
      "buffer": 8,
      "byteLength": 126752,
      "target": 34962
    },
    {
      "buffer": 9,
      "byteLength": 63376,
      "target": 34962
    },
    {
      "buffer": 10,
      "byteLength": 110364,
      "target": 34962
    },
    {
      "buffer": 11,
      "byteLength": 104036,
      "target": 34963
    },
    {
      "buffer": 12,
      "byteLength": 110364,
      "target": 34962
    },
    {
      "buffer": 13,
      "byteLength": 147152,
      "target": 34962
    },
    {
      "buffer": 14,
      "byteLength": 73576,
      "target": 34962
    }
  ],
  "buffers": [
    {
      "byteLength": 205428,
      "uri": "data:application/octet-stream;base64,"
    },
    {
      "byteLength": 194528,
      "uri": "data:application/octet-stream;base64,"
    },
    {
      "byteLength": 205428,
      "uri": "data:application/octet-stream;base64,"
    },
    {
      "byteLength": 273904,
      "uri": "data:application/octet-stream;base64,"
    },
    {
      "byteLength": 136952,
      "uri": "data:application/octet-stream;base64,"
    },
    {
      "byteLength": 95064,
      "uri": "data:application/octet-stream;base64,"
    },
    {
      "byteLength": 90480,
      "uri": "data:application/octet-stream;base64,"
    },
    {
      "byteLength": 95064,
      "uri": "data:application/octet-stream;base64,"
    },
    {
      "byteLength": 126752,
      "uri": "data:application/octet-stream;base64,"
    },
    {
      "byteLength": 63376,
      "uri": "data:application/octet-stream;base64,"
    },
    {
      "byteLength": 110364,
      "uri": "data:application/octet-stream;base64,"
    },
    {
      "byteLength": 104036,
      "uri": "data:application/octet-stream;base64,"
    },
    {
      "byteLength": 110364,
      "uri": "data:application/octet-stream;base64,"
    },
    {
      "byteLength": 147152,
      "uri": "data:application/octet-stream;base64,"
    },
    {
      "byteLength": 73576,
      "uri": "data:application/octet-stream;base64,"
    }
  ],
  "materials": [
    {
      "doubleSided": true,
      "name": "Material #40",
      "normalTexture" : {
      "index" : 0,
      "scale" : 2
      },
      "pbrMetallicRoughness": {
        "baseColorTexture" : {"index" : 2},
        "metallicFactor" : 0,
        "metallicRoughnessTexture" : { "index" : 3 },
        "baseColorFactor": [
          1.0,
          1.0,
          1.0,
          1.0
        ]
      }
    }
  ],
  "images": [
    {
         "uri" : "0217d7c337384ccd89e56e1a9ca4d197_N_TG_Normal_OpenGL.png"
    },
    {
         "uri" : "2138107daa4e4e3ea26eee21ee772b3d_R_TG_Scattering.png"
    },
    {
         "uri" : "570ad59ae6fd4e9f8b8afd0c1a6220f0_RGB_TG_BaseColor.png"
    },
    {
         "uri" : "e773ac3701bc4823af7f41cbebb42dc6_R_TG_Roughness.png"
    }
  ],
  "textures": [
    {
         "source" : 0
    },
    {
         "source" : 1
    },
    {
         "source" : 2
    },
    {
         "source" : 3
    }
  ],
  "meshes": [
    {
      "name": "Object001_Material #40_0",
      "primitives": [
        {
          "attributes": {
            "NORMAL": 2,
            "POSITION": 0,
            "TANGENT": 3,
            "TEXCOORD_0": 4
          },
          "indices": 1,
          "material": 0,
          "mode": 5
        }
      ]
    },
    {
      "name": "Object002_Material #40_0",
      "primitives": [
        {
          "attributes": {
            "NORMAL": 7,
            "POSITION": 5,
            "TANGENT": 8,
            "TEXCOORD_0": 9
          },
          "indices": 6,
          "material": 0,
          "mode": 5
        }
      ]
    },
    {
      "name": "Object003_Material #40_0",
      "primitives": [
        {
          "attributes": {
            "NORMAL": 12,
            "POSITION": 10,
            "TANGENT": 13,
            "TEXCOORD_0": 14
          },
          "indices": 11,
          "material": 0,
          "mode": 5
        }
      ]
    }
  ],
  "nodes": [
    {
      "mesh": 0,
      "name": "Object001_Material #40_0"
    },
    {
      "children": [
        0
      ],
      "name": "_gltfNode_1",
      "rotation": [
        0.0,
        0.0,
        0.0,
        1.0
      ],
      "scale": [
        1.0,
        1.0,
        1.0
      ],
      "translation": [
        -4.768369876728684e-07,
        4.768369876728684e-07,
        0.0
      ]
    },
    {
      "children": [
        1
      ],
      "name": "Object001",
      "rotation": [
        -0.7071067811865475,
        0.0,
        0.0,
        0.7071067811865476
      ],
      "scale": [
        1.0,
        1.0,
        1.0
      ],
      "translation": [
        4.768369876728684e-07,
        0.0,
        4.768369876728684e-07
      ]
    },
    {
      "mesh": 1,
      "name": "Object002_Material #40_0"
    },
    {
      "children": [
        3
      ],
      "name": "_gltfNode_4",
      "rotation": [
        0.0,
        0.0,
        0.0,
        1.0
      ],
      "scale": [
        1.0,
        1.0,
        1.0
      ],
      "translation": [
        -71.55169677734375,
        -0.25627800822257996,
        8.371919631958008
      ]
    },
    {
      "children": [
        4
      ],
      "name": "Object002",
      "rotation": [
        -0.7071067811865475,
        0.0,
        0.0,
        0.7071067811865476
      ],
      "scale": [
        1.0,
        1.0,
        1.0
      ],
      "translation": [
        84.26640319824219,
        -5.906779766082764,
        -0.25627800822257996
      ]
    },
    {
      "mesh": 2,
      "name": "Object003_Material #40_0"
    },
    {
      "children": [
        6
      ],
      "name": "_gltfNode_7",
      "rotation": [
        0.0,
        0.0,
        0.0,
        1.0
      ],
      "scale": [
        1.0,
        1.0,
        1.0
      ],
      "translation": [
        -36.38610076904297,
        0.00013743499584961683,
        -8.371919631958008
      ]
    },
    {
      "children": [
        7
      ],
      "name": "Object003",
      "rotation": [
        2.8378976815533217e-07,
        0.7071070649763156,
        -0.7071064973965516,
        2.8378999586052185e-07
      ],
      "scale": [
        1.0,
        1.0,
        1.0
      ],
      "translation": [
        52.1349983215332,
        -5.906779766082764,
        0.00013248600589577109
      ]
    },
    {
      "children": [
        2,
        5,
        8
      ],
      "name": "RootNode"
    },
    {
      "children": [
        9
      ],
      "name": "b752162fc1f4499d9c9c3293e9d592e2.fbx",
      "rotation": [
        1.1102230246251565e-16,
        0.0,
        0.0,
        1.0
      ],
      "scale": [
        0.009999999776482582,
        0.009999999776482582,
        0.009999999776482582
      ],
      "translation": [
        0.0,
        0.0,
        0.0
      ]
    }
  ],
  "scene": 0,
  "scenes": [
    {
      "nodes": [
        10
      ]
    }
  ]
}
