{
  "accessors": [
    {
      "bufferView": 0,
      "componentType": 5126,
      "count": 2080,
      "max": [
        -0.7546548843383789,
        1.0273815393447876,
        0.34953972697257996
      ],
      "min": [
        -0.9109730124473572,
        0.8678860068321228,
        0.18380500376224518
      ],
      "type": "VEC3"
    },
    {
      "bufferView": 1,
      "componentType": 5125,
      "count": 5259,
      "type": "SCALAR"
    },
    {
      "bufferView": 2,
      "componentType": 5126,
      "count": 2080,
      "type": "VEC3"
    },
    {
      "bufferView": 3,
      "componentType": 5126,
      "count": 2080,
      "type": "VEC4"
    },
    {
      "bufferView": 4,
      "componentType": 5126,
      "count": 2080,
      "type": "VEC2"
    },
    {
      "bufferView": 5,
      "componentType": 5126,
      "count": 2080,
      "max": [
        -0.7546548843383789,
        1.0273815393447876,
        0.34953972697257996
      ],
      "min": [
        -0.9109730124473572,
        0.8678860068321228,
        0.18380500376224518
      ],
      "type": "VEC3"
    },
    {
      "bufferView": 6,
      "componentType": 5123,
      "count": 132,
      "type": "SCALAR"
    },
    {
      "bufferView": 7,
      "componentType": 5126,
      "count": 2080,
      "type": "VEC3"
    },
    {
      "bufferView": 8,
      "componentType": 5126,
      "count": 2080,
      "type": "VEC4"
    },
    {
      "bufferView": 9,
      "componentType": 5126,
      "count": 2080,
      "type": "VEC2"
    },
    {
      "bufferView": 10,
      "componentType": 5126,
      "count": 2682,
      "max": [
        -0.755490243434906,
        1.0265271663665771,
        0.3331257700920105
      ],
      "min": [
        -0.9101380109786987,
        0.8687360286712646,
        0.18463699519634247
      ],
      "type": "VEC3"
    },
    {
      "bufferView": 11,
      "componentType": 5125,
      "count": 6866,
      "type": "SCALAR"
    },
    {
      "bufferView": 12,
      "componentType": 5126,
      "count": 2682,
      "type": "VEC3"
    },
    {
      "bufferView": 13,
      "componentType": 5126,
      "count": 2682,
      "type": "VEC4"
    },
    {
      "bufferView": 14,
      "componentType": 5126,
      "count": 2682,
      "type": "VEC2"
    },
    {
      "bufferView": 15,
      "componentType": 5126,
      "count": 2682,
      "max": [
        -0.755490243434906,
        1.0265271663665771,
        0.3331257700920105
      ],
      "min": [
        -0.9101380109786987,
        0.8687360286712646,
        0.18463699519634247
      ],
      "type": "VEC3"
    },
    {
      "bufferView": 16,
      "componentType": 5123,
      "count": 258,
      "type": "SCALAR"
    },
    {
      "bufferView": 17,
      "componentType": 5126,
      "count": 2682,
      "type": "VEC3"
    },
    {
      "bufferView": 18,
      "componentType": 5126,
      "count": 2682,
      "type": "VEC4"
    },
    {
      "bufferView": 19,
      "componentType": 5126,
      "count": 2682,
      "type": "VEC2"
    }
  ],
  "asset": {
    "version": "2.0"
  },
  "bufferViews": [
    {
      "buffer": 0,
      "byteLength": 24960,
      "target": 34962
    },
    {
      "buffer": 1,
      "byteLength": 21036,
      "target": 34963
    },
    {
      "buffer": 2,
      "byteLength": 24960,
      "target": 34962
    },
    {
      "buffer": 3,
      "byteLength": 33280,
      "target": 34962
    },
    {
      "buffer": 4,
      "byteLength": 16640,
      "target": 34962
    },
    {
      "buffer": 0,
      "byteLength": 24960,
      "target": 34962
    },
    {
      "buffer": 5,
      "byteLength": 264,
      "target": 34963
    },
    {
      "buffer": 2,
      "byteLength": 24960,
      "target": 34962
    },
    {
      "buffer": 3,
      "byteLength": 33280,
      "target": 34962
    },
    {
      "buffer": 4,
      "byteLength": 16640,
      "target": 34962
    },
    {
      "buffer": 6,
      "byteLength": 32184,
      "target": 34962
    },
    {
      "buffer": 7,
      "byteLength": 27464,
      "target": 34963
    },
    {
      "buffer": 8,
      "byteLength": 32184,
      "target": 34962
    },
    {
      "buffer": 9,
      "byteLength": 42912,
      "target": 34962
    },
    {
      "buffer": 10,
      "byteLength": 21456,
      "target": 34962
    },
    {
      "buffer": 6,
      "byteLength": 32184,
      "target": 34962
    },
    {
      "buffer": 11,
      "byteLength": 516,
      "target": 34963
    },
    {
      "buffer": 8,
      "byteLength": 32184,
      "target": 34962
    },
    {
      "buffer": 9,
      "byteLength": 42912,
      "target": 34962
    },
    {
      "buffer": 10,
      "byteLength": 21456,
      "target": 34962
    }
  ],
  "buffers": [
    {
      "byteLength": 24960,
      "uri": "data:application/octet-stream;base64,"
    },
    {
      "byteLength": 21036,
      "uri": "data:application/octet-stream;base64,"
    },
    {
      "byteLength": 24960,
      "uri": "data:application/octet-stream;base64,"
    },
    {
      "byteLength": 33280,
      "uri": "data:application/octet-stream;base64,"
    },
    {
      "byteLength": 16640,
      "uri": "data:application/octet-stream;base64,"
    },
    {
      "byteLength": 264,
      "uri": "data:application/octet-stream;base64,"
    },
    {
      "byteLength": 32184,
      "uri": "data:application/octet-stream;base64,"
    },
    {
      "byteLength": 27464,
      "uri": "data:application/octet-stream;base64,"
    },
    {
      "byteLength": 32184,
      "uri": "data:application/octet-stream;base64,"
    },
    {
      "byteLength": 42912,
      "uri": "data:application/octet-stream;base64,"
    },
    {
      "byteLength": 21456,
      "uri": "data:application/octet-stream;base64,"
    },
    {
      "byteLength": 516,
      "uri": "data:application/octet-stream;base64,"
    }
  ],
  "materials": [
    {
      "doubleSided": true,
      "name": "Eyes",
      "normalTexture" : {
      "index" : 2,
      "scale" : 2
      },
      "pbrMetallicRoughness": {
        "baseColorTexture" : {"index" : 0},
        "metallicFactor" : 0,
        "metallicRoughnessTexture" : { "index" : 1 },
        "baseColorFactor": [
          1.0,
          1.0,
          1.0,
          1.0
        ]
      }
    }
,   {
      "doubleSided": true,
      "name": "aiStandard3",
      "pbrMetallicRoughness": {
        "baseColorFactor": [
          1.0,
          1.0,
          1.0,
          1.0
        ]
      }
    }
  ],
  "images": [
    {
         "uri" : "5e52f88d60d0468e9f1c1bcbd164dfb2_RGB_eyeColor.jpeg"
    },
    {
         "uri" : "92e14afc215e417ba7953ade50df9a8d_RGB_eyeSpecular.jpeg"
    },
    {
         "uri" : "d78197f099c1468db1031cc99d9085bd_N_eyeBump.jpeg"
    }
  ],
  "textures": [
    {
         "source" : 0
    },
    {
         "source" : 1
    },
    {
         "source" : 2
    }
  ],
  "meshes": [
    {
      "name": "Eye_1_R_aiStandard3_0",
      "primitives": [
        {
          "attributes": {
            "NORMAL": 2,
            "POSITION": 0,
            "TANGENT": 3,
            "TEXCOORD_0": 4
          },
          "indices": 1,
          "material": 1,
          "mode": 5
        },
        {
          "attributes": {
            "NORMAL": 7,
            "POSITION": 5,
            "TANGENT": 8,
            "TEXCOORD_0": 9
          },
          "indices": 6,
          "material": 1,
          "mode": 4
        }
      ]
    },
    {
      "name": "Eye_2_R_Eyes_0",
      "primitives": [
        {
          "attributes": {
            "NORMAL": 12,
            "POSITION": 10,
            "TANGENT": 13,
            "TEXCOORD_0": 14
          },
          "indices": 11,
          "material": 0,
          "mode": 5
        },
        {
          "attributes": {
            "NORMAL": 17,
            "POSITION": 15,
            "TANGENT": 18,
            "TEXCOORD_0": 19
          },
          "indices": 16,
          "material": 0,
          "mode": 4
        }
      ]
    }
  ],
  "nodes": [
    {
      "mesh": 0,
      "name": "Eye_1_R_aiStandard3_0"
    },
    {
      "children": [
        0
      ],
      "name": "Eye_1_R"
    },
    {
      "mesh": 1,
      "name": "Eye_2_R_Eyes_0"
    },
    {
      "children": [
        2
      ],
      "name": "Eye_2_R"
    },
    {
      "children": [
        1,
        3
      ],
      "name": "Eye_R",
      "rotation": [
        0.04651995441392843,
        0.0,
        0.0,
        0.9989173608669196
      ],
      "scale": [
        1.0,
        1.000000238418579,
        1.000000238418579
      ],
      "translation": [
        0.0,
        0.028830699622631073,
        -0.0869205966591835
      ]
    },
    {
      "children": [
        4
      ],
      "name": "RootNode"
    },
    {
      "children": [
        5
      ],
      "name": "e83835d76aa64622886094c972479604.fbx",
      "rotation": [
        1.1102230246251565e-16,
        0.0,
        0.0,
        1.0
      ],
      "scale": [
        1.0,
        1.0,
        1.0
      ],
      "translation": [
        0.0,
        0.0,
        0.0
      ]
    }
  ],
  "scene": 0,
  "scenes": [
    {
      "nodes": [
        6
      ]
    }
  ]
}
