{
  "accessors": [
    {
      "bufferView": 0,
      "componentType": 5126,
      "count": 8848,
      "max": [
        39.448768615722656,
        357.7300720214844,
        111.27389526367188
      ],
      "min": [
        -109.125,
        92.4657974243164,
        -219.23699951171875
      ],
      "type": "VEC3"
    },
    {
      "bufferView": 1,
      "componentType": 5125,
      "count": 22854,
      "type": "SCALAR"
    },
    {
      "bufferView": 2,
      "componentType": 5126,
      "count": 8848,
      "type": "VEC3"
    },
    {
      "bufferView": 3,
      "componentType": 5126,
      "count": 8848,
      "type": "VEC4"
    },
    {
      "bufferView": 4,
      "componentType": 5126,
      "count": 8848,
      "type": "VEC2"
    },
    {
      "bufferView": 5,
      "componentType": 5126,
      "count": 7088,
      "max": [
        34.42449951171875,
        300.08428955078125,
        20.632221221923828
      ],
      "min": [
        -10.909299850463867,
        221.74099731445313,
        -37.083900451660156
      ],
      "type": "VEC3"
    },
    {
      "bufferView": 6,
      "componentType": 5125,
      "count": 17973,
      "type": "SCALAR"
    },
    {
      "bufferView": 7,
      "componentType": 5126,
      "count": 7088,
      "type": "VEC3"
    },
    {
      "bufferView": 8,
      "componentType": 5126,
      "count": 7088,
      "type": "VEC4"
    },
    {
      "bufferView": 9,
      "componentType": 5126,
      "count": 7088,
      "type": "VEC2"
    }
  ],
  "asset": {
    "version": "2.0"
  },
  "bufferViews": [
    {
      "buffer": 0,
      "byteLength": 106176,
      "target": 34962
    },
    {
      "buffer": 1,
      "byteLength": 91416,
      "target": 34963
    },
    {
      "buffer": 2,
      "byteLength": 106176,
      "target": 34962
    },
    {
      "buffer": 3,
      "byteLength": 141568,
      "target": 34962
    },
    {
      "buffer": 4,
      "byteLength": 70784,
      "target": 34962
    },
    {
      "buffer": 5,
      "byteLength": 85056,
      "target": 34962
    },
    {
      "buffer": 6,
      "byteLength": 71892,
      "target": 34963
    },
    {
      "buffer": 7,
      "byteLength": 85056,
      "target": 34962
    },
    {
      "buffer": 8,
      "byteLength": 113408,
      "target": 34962
    },
    {
      "buffer": 9,
      "byteLength": 56704,
      "target": 34962
    }
  ],
  "buffers": [
    {
      "byteLength": 106176,
      "uri": "data:application/octet-stream;base64,"
    },
    {
      "byteLength": 91416,
      "uri": "data:application/octet-stream;base64,"
    },
    {
      "byteLength": 106176,
      "uri": "data:application/octet-stream;base64,"
    },
    {
      "byteLength": 141568,
      "uri": "data:application/octet-stream;base64,"
    },
    {
      "byteLength": 70784,
      "uri": "data:application/octet-stream;base64,"
    },
    {
      "byteLength": 85056,
      "uri": "data:application/octet-stream;base64,"
    },
    {
      "byteLength": 71892,
      "uri": "data:application/octet-stream;base64,"
    },
    {
      "byteLength": 85056,
      "uri": "data:application/octet-stream;base64,"
    },
    {
      "byteLength": 113408,
      "uri": "data:application/octet-stream;base64,"
    },
    {
      "byteLength": 56704,
      "uri": "data:application/octet-stream;base64,"
    }
  ],
  "materials": [
    {
      "doubleSided": true,
      "name": "default",
      "pbrMetallicRoughness": {
        "baseColorFactor": [
          0.800000011920929,
          0.800000011920929,
          0.800000011920929,
          1.0
        ]
      }
    }
  ],
  "meshes": [
    {
      "name": "Group53826_default_0",
      "primitives": [
        {
          "attributes": {
            "NORMAL": 2,
            "POSITION": 0,
            "TANGENT": 3,
            "TEXCOORD_0": 4
          },
          "indices": 1,
          "material": 0,
          "mode": 5
        }
      ]
    },
    {
      "name": "Group3612_default_0",
      "primitives": [
        {
          "attributes": {
            "NORMAL": 7,
            "POSITION": 5,
            "TANGENT": 8,
            "TEXCOORD_0": 9
          },
          "indices": 6,
          "material": 0,
          "mode": 5
        }
      ]
    }
  ],
  "nodes": [
    {
      "mesh": 0,
      "name": "Group53826_default_0"
    },
    {
      "children": [
        0
      ],
      "name": "Group53826",
      "rotation": [
        -0.7071067811865475,
        0.0,
        0.0,
        0.7071067811865476
      ],
      "scale": [
        1.0,
        1.0,
        1.0
      ],
      "translation": [
        0.0,
        0.0,
        0.0
      ]
    },
    {
      "mesh": 1,
      "name": "Group3612_default_0"
    },
    {
      "children": [
        2
      ],
      "name": "Group3612",
      "rotation": [
        -0.7071067811865475,
        0.0,
        0.0,
        0.7071067811865476
      ],
      "scale": [
        1.0,
        1.0,
        1.0
      ],
      "translation": [
        0.0,
        0.0,
        0.0
      ]
    },
    {
      "children": [
        1,
        3
      ],
      "name": "RootNode"
    },
    {
      "children": [
        4
      ],
      "name": "834cc9c164cc45c5b3b9800e6e092342.fbx",
      "rotation": [
        1.1102230246251565e-16,
        0.0,
        0.0,
        1.0
      ],
      "scale": [
        0.009999999776482582,
        0.009999999776482582,
        0.009999999776482582
      ],
      "translation": [
        0.0,
        0.0,
        0.0
      ]
    }
  ],
  "scene": 0,
  "scenes": [
    {
      "nodes": [
        5
      ]
    }
  ]
}
