{
  "accessors": [
    {
      "bufferView": 0,
      "componentType": 5126,
      "count": 12013,
      "max": [
        1.0132849216461182,
        1.6210083961486816,
        0.9682204723358154
      ],
      "min": [
        -1.1578500270843506,
        -1.5896300077438354,
        -0.7960399985313416
      ],
      "type": "VEC3"
    },
    {
      "bufferView": 1,
      "componentType": 5125,
      "count": 36525,
      "type": "SCALAR"
    },
    {
      "bufferView": 2,
      "componentType": 5126,
      "count": 12013,
      "type": "VEC3"
    },
    {
      "bufferView": 3,
      "componentType": 5126,
      "count": 12013,
      "type": "VEC4"
    },
    {
      "bufferView": 4,
      "componentType": 5126,
      "count": 12013,
      "type": "VEC2"
    }
  ],
  "asset": {
    "version": "2.0"
  },
  "bufferViews": [
    {
      "buffer": 0,
      "byteLength": 144156,
      "target": 34962
    },
    {
      "buffer": 1,
      "byteLength": 146100,
      "target": 34963
    },
    {
      "buffer": 2,
      "byteLength": 144156,
      "target": 34962
    },
    {
      "buffer": 3,
      "byteLength": 192208,
      "target": 34962
    },
    {
      "buffer": 4,
      "byteLength": 96104,
      "target": 34962
    }
  ],
  "buffers": [
    {
      "byteLength": 144156,
      "uri": "data:application/octet-stream;base64,"
    },
    {
      "byteLength": 146100,
      "uri": "data:application/octet-stream;base64,"
    },
    {
      "byteLength": 144156,
      "uri": "data:application/octet-stream;base64,"
    },
    {
      "byteLength": 192208,
      "uri": "data:application/octet-stream;base64,"
    },
    {
      "byteLength": 96104,
      "uri": "data:application/octet-stream;base64,"
    }
  ],
  "materials": [
    {
      "doubleSided": true,
      "name": "Heart Tex",
      "normalTexture" : {
      "index" : 0,
      "scale" : 2
      },
      "pbrMetallicRoughness": {
        "baseColorTexture" : {"index" : 2},
        "metallicFactor" : 0,
        "metallicRoughnessTexture" : { "index" : 1 },
        "baseColorFactor": [
          1.0,
          1.0,
          1.0,
          1.0
        ]
      }
    }
  ],
  "images": [
    {
         "uri" : "6c0e9764bb7f457c9e799ed2d448c72e_N_hart_UV_low01_Normal.hart_UV_low_defaultMat.png"
    },
    {
         "uri" : "6cf669ad1309475e983884ed39dccfd6_R_hart_UV_low01_Roughness.hart_UV_low_defaultMat.png"
    },
    {
         "uri" : "dc6d8f5b62d94acaa684c3f90ada80b6_RGB_hart_UV_low01_BaseColor.hart_UV_low_defaultMat.png"
    },
    {
         "uri" : "e363d274bf3f4f0abdf59d9ebee74483_R_hart_UV_low01_Metalness.hart_UV_low_defaultMat.png"
    }
  ],
  "textures": [
    {
         "source" : 0
    },
    {
         "source" : 1
    },
    {
         "source" : 2
    },
    {
         "source" : 3
    }
  ],
  "meshes": [
    {
      "name": "hart:ZBrush_defualt_group_Heart Tex_0",
      "primitives": [
        {
          "attributes": {
            "NORMAL": 2,
            "POSITION": 0,
            "TANGENT": 3,
            "TEXCOORD_0": 4
          },
          "indices": 1,
          "material": 0,
          "mode": 5
        }
      ]
    }
  ],
  "nodes": [
    {
      "mesh": 0,
      "name": "hart:ZBrush_defualt_group_Heart Tex_0"
    },
    {
      "children": [
        0
      ],
      "name": "hart:ZBrush_defualt_group",
      "rotation": [
        8.146037399821825e-08,
        0.0,
        0.0,
        0.9999999999999967
      ],
      "scale": [
        286.364990234375,
        286.364990234375,
        286.364990234375
      ],
      "translation": [
        0.0,
        0.0,
        0.0
      ]
    },
    {
      "children": [
        1
      ],
      "name": "RootNode"
    },
    {
      "children": [
        2
      ],
      "name": "657c3bff23dc4b9b8f508b0d10bcd0c1.fbx",
      "rotation": [
        1.1102230246251565e-16,
        0.0,
        0.0,
        1.0
      ],
      "scale": [
        0.009999999776482582,
        0.009999999776482582,
        0.009999999776482582
      ],
      "translation": [
        0.0,
        0.0,
        0.0
      ]
    }
  ],
  "scene": 0,
  "scenes": [
    {
      "nodes": [
        3
      ]
    }
  ]
}
