{
  "accessors": [
    {
      "bufferView": 0,
      "componentType": 5126,
      "count": 11325,
      "max": [
        0.4858613908290863,
        0.4993550777435303,
        0.3567417562007904
      ],
      "min": [
        -0.49144598841667175,
        -0.49945399165153503,
        -0.35669299960136414
      ],
      "type": "VEC3"
    },
    {
      "bufferView": 1,
      "componentType": 5125,
      "count": 24321,
      "type": "SCALAR"
    },
    {
      "bufferView": 2,
      "componentType": 5126,
      "count": 11325,
      "type": "VEC3"
    },
    {
      "bufferView": 3,
      "componentType": 5126,
      "count": 11325,
      "type": "VEC4"
    },
    {
      "bufferView": 4,
      "componentType": 5126,
      "count": 11325,
      "type": "VEC2"
    }
  ],
  "asset": {
    "version": "2.0"
  },
  "bufferViews": [
    {
      "buffer": 0,
      "byteLength": 135900,
      "target": 34962
    },
    {
      "buffer": 1,
      "byteLength": 97284,
      "target": 34963
    },
    {
      "buffer": 2,
      "byteLength": 135900,
      "target": 34962
    },
    {
      "buffer": 3,
      "byteLength": 181200,
      "target": 34962
    },
    {
      "buffer": 4,
      "byteLength": 90600,
      "target": 34962
    }
  ],
  "buffers": [
    {
      "byteLength": 135900,
      "uri": "data:application/octet-stream;base64,"
    },
    {
      "byteLength": 97284,
      "uri": "data:application/octet-stream;base64,"
    },
    {
      "byteLength": 135900,
      "uri": "data:application/octet-stream;base64,"
    },
    {
      "byteLength": 181200,
      "uri": "data:application/octet-stream;base64,"
    },
    {
      "byteLength": 90600,
      "uri": "data:application/octet-stream;base64,"
    }
  ],
  "materials": [
    {
      "doubleSided": true,
      "name": "material_0",
      "pbrMetallicRoughness": {
        "baseColorTexture" : {"index" : 0},
        "baseColorFactor": [
          1.0,
          1.0,
          1.0,
          1.0
        ]
      }
    }
  ],
  "images": [
    {
         "uri" : "e5d24dda1cfd4b1db9b8c0c557349838_RGB_gltf_embedded_0.jpeg"
    }
  ],
  "textures": [
    {
         "source" : 0
    }
  ],
  "meshes": [
    {
      "primitives": [
        {
          "attributes": {
            "NORMAL": 2,
            "POSITION": 0,
            "TANGENT": 3,
            "TEXCOORD_0": 4
          },
          "indices": 1,
          "material": 0,
          "mode": 5
        }
      ]
    }
  ],
  "nodes": [
    {
      "mesh": 0,
      "name": "_gltfNode_0"
    },
    {
      "children": [
        0
      ],
      "name": "e0a51933-b3f5-4609-b374-7fb6e3abb0bf_1",
      "rotation": [
        0.0,
        0.0,
        0.0,
        1.0
      ],
      "scale": [
        1.0,
        1.0,
        1.0
      ],
      "translation": [
        0.0,
        -0.18000000715255737,
        0.8663430213928223
      ]
    },
    {
      "children": [
        1
      ],
      "name": "human+head+3d+model.glb_0",
      "rotation": [
        0.0,
        0.0,
        0.0,
        1.0
      ],
      "scale": [
        1.0,
        1.0,
        1.0
      ],
      "translation": [
        0.0,
        0.0,
        -0.9470000267028809
      ]
    },
    {
      "children": [
        2
      ],
      "name": "GLTF_SceneRootNode",
      "rotation": [
        -1.9753748434203095e-22,
        0.0,
        0.0,
        1.0
      ],
      "scale": [
        1.0,
        1.0,
        1.0
      ],
      "translation": [
        0.0,
        0.0,
        0.0
      ]
    }
  ],
  "scene": 0,
  "scenes": [
    {
      "nodes": [
        3
      ]
    }
  ]
}
