{
  "accessors": [
    {
      "bufferView": 0,
      "componentType": 5126,
      "count": 3835,
      "max": [
        0.4811834990978241,
        0.8436399102210999,
        0.009171901270747185
      ],
      "min": [
        -0.6379809975624084,
        -0.625012993812561,
        -0.24687300622463226
      ],
      "type": "VEC3"
    },
    {
      "bufferView": 1,
      "componentType": 5125,
      "count": 11937,
      "type": "SCALAR"
    },
    {
      "bufferView": 2,
      "componentType": 5126,
      "count": 3835,
      "type": "VEC3"
    },
    {
      "bufferView": 3,
      "componentType": 5126,
      "count": 3835,
      "type": "VEC4"
    },
    {
      "bufferView": 4,
      "componentType": 5126,
      "count": 3835,
      "type": "VEC2"
    }
  ],
  "asset": {
    "version": "2.0"
  },
  "bufferViews": [
    {
      "buffer": 0,
      "byteLength": 46020,
      "target": 34962
    },
    {
      "buffer": 1,
      "byteLength": 47748,
      "target": 34963
    },
    {
      "buffer": 2,
      "byteLength": 46020,
      "target": 34962
    },
    {
      "buffer": 3,
      "byteLength": 61360,
      "target": 34962
    },
    {
      "buffer": 4,
      "byteLength": 30680,
      "target": 34962
    }
  ],
  "buffers": [
    {
      "byteLength": 46020,
      "uri": "data:application/octet-stream;base64,"
    },
    {
      "byteLength": 47748,
      "uri": "data:application/octet-stream;base64,"
    },
    {
      "byteLength": 46020,
      "uri": "data:application/octet-stream;base64,"
    },
    {
      "byteLength": 61360,
      "uri": "data:application/octet-stream;base64,"
    },
    {
      "byteLength": 30680,
      "uri": "data:application/octet-stream;base64,"
    }
  ],
  "materials": [
    {
      "doubleSided": true,
      "name": "STOMACH0_painted",
      "normalTexture" : {
      "index" : 5,
      "scale" : 2
      },
      "occlusionTexture" : {
      "index" : 4
      },
      "pbrMetallicRoughness": {
        "baseColorTexture" : {"index" : 2},
        "metallicFactor" : 0,
        "metallicRoughnessTexture" : { "index" : 1 },
        "baseColorFactor": [
          1.0,
          1.0,
          1.0,
          1.0
        ]
      }
    }
  ],
  "images": [
    {
         "uri" : "09356795e24443c890e8bd6f8503821c_RGB_internal_ground_ao_texture.jpeg"
    },
    {
         "uri" : "1de2ace87d714d6aa6a0b14bf85c2e41_R_Stomach_Roughness.png"
    },
    {
         "uri" : "3241a0f5c2474ca1957f8e5c610c44ef_RGB_Stomach_Base_Color.png"
    },
    {
         "uri" : "352bfbfbd30741a0858e137e56d69e55_R_Stomach_Metallic.png"
    },
    {
         "uri" : "838d7d6993b34641a67124dc98362683_R_Stomach_Mixed_AO.png"
    },
    {
         "uri" : "8d362a856c5b4d53a796928c0a87bdf3_N_Stomach_Normal_OpenGL1_copy.jpeg"
    }
  ],
  "textures": [
    {
         "source" : 0
    },
    {
         "source" : 1
    },
    {
         "source" : 2
    },
    {
         "source" : 3
    },
    {
         "source" : 4
    },
    {
         "source" : 5
    }
  ],
  "meshes": [
    {
      "name": "STOMACH0_painted_STOMACH0_painted_0",
      "primitives": [
        {
          "attributes": {
            "NORMAL": 2,
            "POSITION": 0,
            "TANGENT": 3,
            "TEXCOORD_0": 4
          },
          "indices": 1,
          "material": 0,
          "mode": 5
        }
      ]
    }
  ],
  "nodes": [
    {
      "mesh": 0,
      "name": "STOMACH0_painted_STOMACH0_painted_0"
    },
    {
      "children": [
        0
      ],
      "name": "STOMACH0_painted"
    },
    {
      "children": [
        1
      ],
      "name": "RootNode"
    },
    {
      "children": [
        2
      ],
      "name": "67bce7b8fdd34b17b98ab9a3fbc50253.fbx",
      "rotation": [
        1.1102230246251565e-16,
        0.0,
        0.0,
        1.0
      ],
      "scale": [
        0.009999999776482582,
        0.009999999776482582,
        0.009999999776482582
      ],
      "translation": [
        0.0,
        0.0,
        0.0
      ]
    }
  ],
  "scene": 0,
  "scenes": [
    {
      "nodes": [
        3
      ]
    }
  ]
}
